# Max2Obj Version 4.0 Mar 10th, 2001
#
# object objobjicon_middle to come ...
#
v  -36.000000 29.008358 -26.989393
v  36.000000 29.008358 -26.989393
v  -36.000000 101.008362 -26.989389
v  36.000000 101.008362 -26.989389
# 4 vertices

vt  0.008519 0.005832 0.000000
vt  0.998006 0.005832 0.000000
vt  0.998006 0.988686 0.000000
vt  0.008519 0.988686 0.000000
# 4 texture vertices

vn  0.000000 -0.000000 1.000000
vn  0.000000 -0.000000 1.000000
vn  0.000000 -0.000000 1.000000
vn  0.000000 -0.000000 1.000000
# 4 vertex normals

g objobjicon_middle
s 1
f 1/1/1 2/2/2 4/3/4
f 4/3/4 3/4/3 1/1/1
# 2 faces

g
